<svg width="25" height="24" viewBox="0 0 25 24" fill="none" xmlns="http://www.w3.org/2000/svg">
<path fill-rule="evenodd" clip-rule="evenodd" d="M12.5001 24.0001C5.87189 24.0001 0.499023 18.6272 0.499023 12.0001C0.499023 5.37189 5.87189 -0.000976562 12.5001 -0.000976562C19.1272 -0.000976562 24.5001 5.37189 24.5001 12.0001C24.5001 18.6272 19.1272 24.0001 12.5001 24.0001ZM17.8333 9.52598C18.6138 8.74546 18.6138 7.47972 17.8333 6.6992C17.0528 5.91868 15.787 5.91868 15.0065 6.6992L12.5011 9.20355L9.99468 6.69711C9.21415 5.91659 7.94841 5.91659 7.16789 6.69711C6.38737 7.47868 6.38737 8.74442 7.16789 9.52494L9.67433 12.0314L7.16789 14.5378C6.38737 15.3183 6.38737 16.5841 7.16789 17.3646C7.94841 18.1451 9.21415 18.1451 9.99468 17.3646L12.5011 14.8582L15.0065 17.3635C15.787 18.1441 17.0528 18.1441 17.8333 17.3635C18.6138 16.583 18.6138 15.3173 17.8333 14.5368L15.3279 12.0314L17.8333 9.52598Z" fill="#DF4F1D"/>
</svg>
