<svg width="24" height="24" viewBox="0 0 24 24" fill="none" xmlns="http://www.w3.org/2000/svg">
<path d="M3.98438 5.01562H20.0156V6.98438H3.98438V5.01562ZM3.98438 15V12.9844H20.0156V15H3.98438ZM20.0156 9V11.0156H3.98438V9H20.0156ZM14.0156 17.0156V18.9844H3.98438V17.0156H14.0156Z" fill="#0D8DCF"/>
<path d="M2 2H22V-2H2V2ZM22 2V22H26V2H22ZM22 22H2V26H22V22ZM2 22V2H-2V22H2ZM2 22H2H-2C-2 24.2091 -0.20914 26 2 26V22ZM22 22V26C24.2091 26 26 24.2091 26 22H22ZM22 2H26C26 -0.209138 24.2091 -2 22 -2V2ZM2 -2C-0.209138 -2 -2 -0.20914 -2 2H2V2V-2Z" fill="#0D8DCF"/>
</svg>
