<svg width="18" height="22" viewBox="0 0 18 22" fill="none" xmlns="http://www.w3.org/2000/svg">
<path d="M13.125 6.3125V5.1875C13.125 5.08437 13.0406 5 12.9375 5H3.9375C3.83437 5 3.75 5.08437 3.75 5.1875V6.3125C3.75 6.41563 3.83437 6.5 3.9375 6.5H12.9375C13.0406 6.5 13.125 6.41563 13.125 6.3125ZM3.9375 8.375C3.83437 8.375 3.75 8.45937 3.75 8.5625V9.6875C3.75 9.79062 3.83437 9.875 3.9375 9.875H8.25C8.35312 9.875 8.4375 9.79062 8.4375 9.6875V8.5625C8.4375 8.45937 8.35312 8.375 8.25 8.375H3.9375ZM12.75 11.0938C9.95391 11.0938 7.6875 13.3602 7.6875 16.1562C7.6875 18.9523 9.95391 21.2188 12.75 21.2188C15.5461 21.2188 17.8125 18.9523 17.8125 16.1562C17.8125 13.3602 15.5461 11.0938 12.75 11.0938ZM15.2695 18.6758C14.5969 19.3484 13.7016 19.7188 12.75 19.7188C11.7984 19.7188 10.9031 19.3484 10.2305 18.6758C9.55781 18.0031 9.1875 17.1078 9.1875 16.1562C9.1875 15.2047 9.55781 14.3094 10.2305 13.6367C10.9031 12.9641 11.7984 12.5938 12.75 12.5938C13.7016 12.5938 14.5969 12.9641 15.2695 13.6367C15.9422 14.3094 16.3125 15.2047 16.3125 16.1562C16.3125 17.1078 15.9422 18.0031 15.2695 18.6758ZM7.3125 18.9688H1.875V2.46875H15V10.5312C15 10.6344 15.0844 10.7188 15.1875 10.7188H16.5C16.6031 10.7188 16.6875 10.6344 16.6875 10.5312V1.53125C16.6875 1.11641 16.3523 0.78125 15.9375 0.78125H0.9375C0.522656 0.78125 0.1875 1.11641 0.1875 1.53125V19.9062C0.1875 20.3211 0.522656 20.6562 0.9375 20.6562H7.3125C7.41563 20.6562 7.5 20.5719 7.5 20.4688V19.1562C7.5 19.0531 7.41563 18.9688 7.3125 18.9688Z" fill="#0D8DCF"/>
</svg>
