<svg width="24" height="24" viewBox="0 0 24 24" fill="none" xmlns="http://www.w3.org/2000/svg">
<path fill-rule="evenodd" clip-rule="evenodd" d="M12 24C5.37212 24 0 18.6268 0 12C0 5.37212 5.37212 0 12 0C18.6268 0 24 5.37212 24 12C24 18.6268 18.6268 24 12 24ZM18.0047 5.93278C17.1835 5.43569 16.1143 5.69831 15.6172 6.5195L11.1548 13.8831L8.52766 9.93348C7.99618 9.13417 6.91759 8.91741 6.11828 9.44889C5.31897 9.98037 5.10221 11.059 5.6337 11.8583L9.77612 18.086C10.0992 18.5716 10.6421 18.8613 11.2236 18.8613C11.2351 18.8613 11.2476 18.8613 11.2601 18.8613C11.8551 18.8488 12.4012 18.533 12.7097 18.0245L18.5904 8.32028C19.0875 7.49909 18.8248 6.43092 18.0047 5.93278Z" fill="#373786"/>
</svg>
