<svg width="20" height="20" viewBox="1 0 20 20" fill="none" xmlns="http://www.w3.org/2000/svg">
<path d="M20.7138 8.4801L18.4805 7.81344C18.3261 7.27431 18.1137 6.7535 17.8471 6.2601L18.9405 4.21344C18.9815 4.13618 18.9965 4.04776 18.9833 3.96129C18.9701 3.87482 18.9294 3.79492 18.8671 3.73344L17.2738 2.13344C17.2123 2.07121 17.1324 2.03048 17.0459 2.01727C16.9595 2.00406 16.8711 2.01908 16.7938 2.0601L14.7605 3.14677C14.2622 2.86721 13.7346 2.64363 13.1871 2.4801L12.5205 0.273436C12.4923 0.192113 12.439 0.121835 12.3683 0.0727166C12.2976 0.0235985 12.2132 -0.00182616 12.1271 0.000102112H9.8738C9.78723 0.000505162 9.70305 0.0285251 9.6335 0.0800842C9.56396 0.131643 9.51268 0.204051 9.48713 0.286769L8.82047 2.48677C8.26848 2.64942 7.73631 2.87302 7.2338 3.15344L5.2338 2.07344C5.15655 2.03241 5.06812 2.01739 4.98166 2.0306C4.89519 2.04381 4.81528 2.08455 4.7538 2.14677L3.1338 3.72677C3.07158 3.78825 3.03084 3.86815 3.01763 3.95462C3.00442 4.04109 3.01944 4.12951 3.06047 4.20677L4.14047 6.20677C3.86051 6.70716 3.63692 7.23707 3.4738 7.78677L1.26714 8.45344C1.18442 8.47898 1.11201 8.53026 1.06045 8.5998C1.00889 8.66935 0.980872 8.75353 0.980469 8.8401V11.0934C0.980872 11.18 1.00889 11.2642 1.06045 11.3337C1.11201 11.4033 1.18442 11.4546 1.26714 11.4801L3.48714 12.1468C3.65203 12.6873 3.87559 13.2082 4.1538 13.7001L3.06047 15.7934C3.01944 15.8707 3.00442 15.9591 3.01763 16.0456C3.03084 16.1321 3.07158 16.212 3.1338 16.2734L4.72714 17.8668C4.78862 17.929 4.86852 17.9697 4.95499 17.9829C5.04146 17.9961 5.12988 17.9811 5.20714 17.9401L7.26714 16.8401C7.75445 17.1031 8.26848 17.3131 8.80047 17.4668L9.46714 19.7134C9.49268 19.7962 9.54396 19.8686 9.6135 19.9201C9.68305 19.9717 9.76723 19.9997 9.8538 20.0001H12.1071C12.1937 19.9997 12.2779 19.9717 12.3474 19.9201C12.417 19.8686 12.4683 19.7962 12.4938 19.7134L13.1605 17.4601C13.6879 17.3057 14.1974 17.0956 14.6805 16.8334L16.7538 17.9401C16.8311 17.9811 16.9195 17.9961 17.0059 17.9829C17.0924 17.9697 17.1723 17.929 17.2338 17.8668L18.8271 16.2734C18.8894 16.212 18.9301 16.1321 18.9433 16.0456C18.9565 15.9591 18.9415 15.8707 18.9005 15.7934L17.7938 13.7268C18.0587 13.2419 18.271 12.7301 18.4271 12.2001L20.6738 11.5334C20.7565 11.5079 20.8289 11.4566 20.8805 11.3871C20.932 11.3175 20.9601 11.2333 20.9605 11.1468V8.87344C20.9644 8.79054 20.9429 8.70842 20.8988 8.63811C20.8547 8.5678 20.7901 8.51266 20.7138 8.4801ZM11.0005 13.6668C10.2753 13.6668 9.56636 13.4517 8.96338 13.0488C8.3604 12.6459 7.89043 12.0733 7.61291 11.4033C7.33539 10.7333 7.26278 9.99604 7.40426 9.28477C7.54574 8.57351 7.89495 7.92017 8.40774 7.40738C8.92054 6.89459 9.57387 6.54537 10.2851 6.40389C10.9964 6.26241 11.7336 6.33502 12.4036 6.61254C13.0736 6.89007 13.6463 7.36003 14.0492 7.96301C14.4521 8.56599 14.6671 9.2749 14.6671 10.0001C14.6671 10.9726 14.2808 11.9052 13.5932 12.5928C12.9056 13.2805 11.9729 13.6668 11.0005 13.6668Z" fill="#CCCCCC"/>
</svg>
