<svg width="24" height="24" viewBox="0 0 24 24" fill="none" xmlns="http://www.w3.org/2000/svg">
<path fill-rule="evenodd" clip-rule="evenodd" d="M20.4855 20.4848C15.7987 25.1716 8.20031 25.1716 3.51422 20.4855C-1.17261 15.7987 -1.17261 8.20032 3.51422 3.51349C8.20031 -1.1726 15.7987 -1.1726 20.4855 3.51423C25.1716 8.20032 25.1716 15.7987 20.4855 20.4848ZM14.0219 6.47891C14.0219 5.37509 13.1269 4.48008 12.0231 4.48008C10.9193 4.48008 10.0243 5.37509 10.0243 6.47891L10.0235 10.0213L6.4789 10.0213C5.37508 10.0213 4.48006 10.9163 4.48006 12.0202C4.4808 13.1247 5.37581 14.0197 6.47964 14.0197L10.0243 14.0197L10.0243 17.5644C10.0243 18.6682 10.9193 19.5632 12.0231 19.5632C13.1269 19.5632 14.0219 18.6682 14.0219 17.5644L14.0219 14.0197L17.5651 14.0197C18.6689 14.0197 19.5639 13.1247 19.5639 12.0209C19.5639 10.9171 18.6689 10.0221 17.5651 10.0221H14.0219V6.47891Z" fill="#5F9A10"/>
</svg>
