<svg width="24" height="24" viewBox="0 0 24 24" fill="none" xmlns="http://www.w3.org/2000/svg">
<path fill-rule="evenodd" clip-rule="evenodd" d="M4 3C3.44772 3 3 3.44772 3 4V8C3 8.55228 3.44772 9 4 9H20C20.5523 9 21 8.55228 21 8V4C21 3.44772 20.5523 3 20 3H4ZM19 6C19 5.44772 18.5523 5 18 5H6C5.44772 5 5 5.44772 5 6C5 6.55228 5.44772 7 6 7H18C18.5523 7 19 6.55228 19 6ZM4 11C3.44772 11 3 11.4477 3 12V20C3 20.5523 3.44772 21 4 21H10C10.5523 21 11 20.5523 11 20V12C11 11.4477 10.5523 11 10 11H4ZM9 14C9 13.4477 8.55228 13 8 13H6C5.44772 13 5 13.4477 5 14V18C5 18.5523 5.44772 19 6 19H8C8.55228 19 9 18.5523 9 18V14ZM13 12C13 11.4477 13.4477 11 14 11H20C20.5523 11 21 11.4477 21 12C21 12.5523 20.5523 13 20 13H14C13.4477 13 13 12.5523 13 12ZM13 16C13 15.4477 13.4477 15 14 15H20C20.5523 15 21 15.4477 21 16C21 16.5523 20.5523 17 20 17H14C13.4477 17 13 16.5523 13 16ZM13 20C13 19.4477 13.4477 19 14 19H20C20.5523 19 21 19.4477 21 20C21 20.5523 20.5523 21 20 21H14C13.4477 21 13 20.5523 13 20Z" fill="white"/>
</svg>
