<svg width="24" height="24" viewBox="0 0 24 24" fill="none" xmlns="http://www.w3.org/2000/svg">
<path d="M19.5 19V14.5H20.5V19C20.5 19.3978 20.342 19.7794 20.0607 20.0607C19.7794 20.342 19.3978 20.5 19 20.5H5C4.60218 20.5 4.22064 20.342 3.93934 20.0607C3.65804 19.7794 3.5 19.3978 3.5 19V5C3.5 4.60218 3.65804 4.22064 3.93934 3.93934C4.22064 3.65804 4.60218 3.5 5 3.5H9.5V4.5H5H4.5V5V19V19.5H5H19H19.5V19Z" fill="#666666" stroke="white"/>
<mask id="path-2-inside-1_1347_11267" fill="white">
<path d="M21 7H17V3H15V7H11V9H15V13H17V9H21"/>
</mask>
<path d="M21 7H17V3H15V7H11V9H15V13H17V9H21" fill="#666666"/>
<path d="M17 7H16V8H17V7ZM17 3H18V2H17V3ZM15 3V2H14V3H15ZM15 7V8H16V7H15ZM11 7V6H10V7H11ZM11 9H10V10H11V9ZM15 9H16V8H15V9ZM15 13H14V14H15V13ZM17 13V14H18V13H17ZM17 9V8H16V9H17ZM21 6H17V8H21V6ZM18 7V3H16V7H18ZM17 2H15V4H17V2ZM14 3V7H16V3H14ZM15 6H11V8H15V6ZM10 7V9H12V7H10ZM11 10H15V8H11V10ZM14 9V13H16V9H14ZM15 14H17V12H15V14ZM18 13V9H16V13H18ZM17 10H21V8H17V10Z" fill="white" mask="url(#path-2-inside-1_1347_11267)"/>
</svg>
