<svg width="22" height="15" viewBox="0 0 22 15" fill="none" xmlns="http://www.w3.org/2000/svg">
<path d="M20.8701 7.49987C20.2301 6.38987 16.7101 0.819872 10.7301 0.999872C5.20007 1.13987 2.00007 5.99987 1.13007 7.49987C1.0423 7.65189 0.996094 7.82434 0.996094 7.99987C0.996094 8.17541 1.0423 8.34785 1.13007 8.49987C1.76007 9.58987 5.13007 14.9999 11.0201 14.9999H11.2701C16.8001 14.8599 20.0101 9.99987 20.8701 8.49987C20.9578 8.34785 21.004 8.17541 21.004 7.99987C21.004 7.82434 20.9578 7.65189 20.8701 7.49987ZM11.0001 11.4999C10.3078 11.4999 9.63114 11.2946 9.05557 10.91C8.48 10.5254 8.0314 9.9788 7.76649 9.33926C7.50158 8.69972 7.43227 7.99599 7.56732 7.31706C7.70237 6.63812 8.03571 6.01448 8.52519 5.525C9.01468 5.03551 9.63832 4.70217 10.3173 4.56712C10.9962 4.43207 11.6999 4.50139 12.3395 4.76629C12.979 5.0312 13.5256 5.4798 13.9102 6.05538C14.2948 6.63095 14.5001 7.30764 14.5001 7.99987C14.5001 8.92813 14.1313 9.81837 13.4749 10.4747C12.8186 11.1311 11.9283 11.4999 11.0001 11.4999Z" fill="white"/>
</svg>
